<?xml version="1.0" encoding="utf-8"?>
<!-- Generator: Adobe Illustrator 27.5.0, SVG Export Plug-In . SVG Version: 6.00 Build 0)  -->
<svg version="1.1" xmlns="http://www.w3.org/2000/svg" xmlns:xlink="http://www.w3.org/1999/xlink" x="0px" y="0px"
	 viewBox="0 0 500 500" style="enable-background:new 0 0 500 500;" xml:space="preserve">
<g id="BACKGROUND">
	<rect style="fill:#FFFFFF;" width="500" height="500"/>
	<path style="fill:#D4E9FA;" d="M53.8,395h381.313c1.189-2.998,2.475-5.95,3.867-8.84c8.213-17.051,19.925-32.235,25.3-50.604
		c5.571-19.037,3.443-40.976-6.905-57.417c-17.319-27.517-52.937-35.446-70.006-63.152c-13.544-21.984-13.076-53.015-30.262-71.664
		c-13.438-14.582-34.275-17.373-53.001-14.799c-18.726,2.574-36.799,9.632-55.582,11.639c-19.499,2.083-39.47-1.438-57.402-10.12
		c-10.027-4.855-19.532-11.33-30.196-14.089c-16.902-4.372-35.408,1.517-48.511,14.054c-13.103,12.537-20.867,31.178-22.358,50.215
		c-1.307,16.686,1.919,33.36,2.729,50.084c0.81,16.724-1.268,34.785-11.325,47.355c-9.788,12.233-25.35,17.08-35.848,28.577
		c-15.611,17.097-16.278,46.084-6.126,67.594C43.219,381.74,48.14,388.752,53.8,395z"/>
</g>
<g id="OBJECTS">
	<g>
		<path style="fill:#FFFFFF;" d="M102.75,348.286c-0.472-1.297-1.191-2.517-2.187-3.472c-0.809-0.775-1.784-1.364-2.574-2.158
			c-2.242-2.253-2.636-5.798-2.091-8.929c0.545-3.131,1.877-6.07,2.625-9.159c0.748-3.089,0.839-6.569-0.921-9.216
			c-1.437-2.161-3.923-3.485-5.245-5.719c-2.166-3.661-0.567-8.502-2.112-12.465c-0.258-0.662-0.613-1.288-1.043-1.854
			c-0.485-0.785-1.104-1.462-1.944-1.93c-0.825-0.46-1.772-0.65-2.716-0.613c-0.944-0.036-1.892,0.154-2.716,0.613
			c-0.84,0.468-1.459,1.146-1.944,1.93c-0.431,0.566-0.785,1.193-1.044,1.854c-1.545,3.963,0.054,8.804-2.112,12.465
			c-1.322,2.234-3.808,3.558-5.245,5.719c-1.76,2.646-1.669,6.127-0.921,9.216c0.748,3.089,2.08,6.027,2.625,9.159
			c0.545,3.131,0.151,6.677-2.091,8.929c-0.79,0.794-1.765,1.383-2.574,2.158c-0.996,0.955-1.716,2.175-2.188,3.472
			c-1.316,3.616-0.668,7.805,1.378,11.064c3.162,5.039,8.8,6.404,13.508,9.457c0.299,0.194,0.616,0.38,0.939,0.553
			c0.261,0.234,0.548,0.441,0.896,0.581c0.483,0.194,0.984,0.239,1.487,0.199c0.503,0.04,1.004-0.006,1.487-0.199
			c0.348-0.139,0.635-0.347,0.896-0.58c0.324-0.173,0.64-0.359,0.939-0.553c4.709-3.053,10.346-4.417,13.508-9.457
			C103.418,356.091,104.066,351.902,102.75,348.286z"/>
		<g>
			<path style="fill:#6376BF;" d="M96.36,392.79c-0.64,0.88-1.37,1.63-2.2,2.21H74.92c-7.5-5.21-6.67-24.22-6.32-29.09
				c0.04-0.64,0.58-1.13,1.22-1.13h29.44c0.65,0,1.18,0.49,1.23,1.13C100.79,370.24,101.48,385.74,96.36,392.79z"/>
			<path style="opacity:0.5;fill:#6376BF;" d="M96.36,392.79c-0.64,0.88-1.37,1.63-2.2,2.21H74.92c-7.5-5.21-6.67-24.22-6.32-29.09
				c0.04-0.64,0.58-1.13,1.22-1.13h0.99C74.71,372.71,84.97,391.2,96.36,392.79z"/>
		</g>
	</g>
	<g>
		<g>
			<g>
				<g>
					<path style="fill:#FFC68A;" d="M424.867,204.527c0.041-2.052-1.571-3.768-3.592-4.124c-4.931-0.867-17.916-3.15-18.601-3.267
						c-0.582-0.099,0.606-17.632,0.678-18.686c0.918-0.81,1.489-1.956,1.563-3.226c0.009-0.154,0.009-0.316-0.058-0.456
						c-0.067-0.14-0.217-0.251-0.37-0.224c-0.138,0.024-0.234,0.146-0.323,0.255c-0.316,0.388-0.709,0.712-1.151,0.947
						c-0.353-1.102,0.02-2.286,0.253-3.42c0.059-0.29,0.046-0.69-0.24-0.765c-0.249-0.065-0.457,0.191-0.574,0.42
						c-0.286,0.562-0.479,1.171-0.569,1.795c0.075-0.755,0.151-1.51,0.226-2.264c0.023-0.231-0.001-0.535-0.225-0.595
						c-0.177-0.047-0.341,0.107-0.452,0.253c-0.592,0.773-0.928,1.737-0.944,2.71c0.002-0.805,0.005-1.611,0.007-2.416
						c0-0.099-0.003-0.207-0.066-0.282c-0.087-0.102-0.256-0.096-0.368-0.021c-0.112,0.075-0.179,0.199-0.24,0.319
						c-0.407,0.812-0.682,1.69-0.812,2.589c-0.068-0.362-0.137-0.725-0.205-1.087c-0.041-0.215-0.141-0.484-0.36-0.485
						c-0.206-0.001-0.315,0.24-0.359,0.441c-0.22,1.015-0.079,2.082,0.235,3.072c0.223,0.702,0.539,1.367,0.87,2.026
						c-1.082,4.138-5.862,23.166-2.72,24.916c3.527,1.965,23.304,7.303,24.551,7.172
						C421.904,210.03,424.808,207.514,424.867,204.527z"/>
					<path style="fill:#F05956;" d="M397.595,181.443l5.944,1.582c0,0-0.75,13.549-0.51,13.62c0.24,0.071,20.34,2.628,21.38,5.282
						c1.04,2.654,0.818,7.151-3.278,8.546c-4.096,1.395-25.349-5.697-25.93-8.519C394.158,196.888,397.595,181.443,397.595,181.443z
						"/>
					<g>
						<path style="opacity:0.5;fill:#F05956;" d="M403.029,196.645c0,0-2.763-0.133-2.667,0.645
							C400.457,198.067,403.029,196.645,403.029,196.645z"/>
						<path style="opacity:0.5;fill:#F05956;" d="M403.029,196.645c0,0-0.804,1.066-0.514,1.738
							C402.805,199.055,403.029,196.645,403.029,196.645z"/>
					</g>
				</g>
				<g>
					<polygon style="fill:#FFC68A;" points="425.49,191.73 423.48,200.76 417.05,200.04 417.69,197.11 418.14,195.06 419.17,190.32 
											"/>
					<path style="fill:#EDAF6B;" d="M423.2,194.56c0,0-2.58,3.35-5.51,2.55l0.45-2.05C418.43,195.12,421.56,195.71,423.2,194.56z"/>
				</g>
				<path style="fill:#F05956;" d="M423.73,230.06l-14.79,0.3c0,0,1.06-5.42,0.89-9.81c-0.04-1.19-0.2-2.42-0.39-3.63
					c-0.21-1.31-0.46-2.58-0.65-3.74c0,0,0,0-0.01,0c-0.22-1.37-0.38-2.56-0.31-3.44c0.4-4.85,8.58-9.7,8.58-9.7l6.43,0.72
					c0,0,1.94,2.31,2.59,4.95C426.93,209.2,423.73,230.06,423.73,230.06z"/>
				<g>
					<g>
						<path style="fill:#FFC68A;" d="M423.989,204.889c-0.543-1.979-2.575-3.168-4.614-2.935
							c-4.975,0.567-18.074,2.062-18.764,2.145c-0.586,0.07-4.421-17.079-4.651-18.11c0.65-1.037,0.873-2.298,0.583-3.537
							c-0.035-0.151-0.081-0.305-0.185-0.421c-0.103-0.115-0.279-0.179-0.418-0.11c-0.126,0.062-0.183,0.207-0.237,0.336
							c-0.193,0.461-0.478,0.884-0.835,1.234c-0.651-0.957-0.629-2.198-0.728-3.351c-0.025-0.295-0.151-0.675-0.448-0.666
							c-0.257,0.008-0.384,0.313-0.431,0.566c-0.115,0.62-0.128,1.259-0.036,1.882c-0.142-0.745-0.284-1.49-0.426-2.235
							c-0.043-0.228-0.153-0.513-0.385-0.506c-0.184,0.005-0.296,0.199-0.362,0.37c-0.348,0.908-0.397,1.929-0.136,2.867
							c-0.226-0.773-0.452-1.546-0.679-2.319c-0.028-0.095-0.061-0.198-0.144-0.252c-0.113-0.074-0.273-0.019-0.359,0.084
							c-0.086,0.104-0.116,0.241-0.139,0.374c-0.16,0.894-0.175,1.814-0.044,2.713c-0.169-0.328-0.337-0.656-0.505-0.984
							c-0.1-0.195-0.272-0.424-0.483-0.363c-0.198,0.057-0.234,0.319-0.219,0.524c0.077,1.036,0.514,2.019,1.097,2.879
							c0.413,0.609,0.904,1.159,1.409,1.696c0.136,4.275,0.951,23.878,4.46,24.664c3.939,0.883,24.418,0.392,25.577-0.088
							C422.709,211.006,424.78,207.77,423.989,204.889z"/>
						<path style="fill:#F05956;" d="M391.289,190.49l6.149-0.169c0,0,3.125,13.205,3.375,13.205s20.25-3.25,22-1
							s2.813,6.625-0.719,9.125s-25.924,1.729-27.281-0.813C392.375,206.275,391.289,190.49,391.289,190.49z"/>
						<g>
							<path style="opacity:0.5;fill:#F05956;" d="M400.813,203.525c0,0-2.688,0.656-2.375,1.375
								C398.75,205.619,400.813,203.525,400.813,203.525z"/>
							<path style="opacity:0.5;fill:#F05956;" d="M400.813,203.525c0,0-0.469,1.25,0,1.813
								C401.281,205.9,400.813,203.525,400.813,203.525z"/>
						</g>
					</g>
					<path style="opacity:0.5;fill:#F05956;" d="M419.74,212.49c-0.38,0.26-6.48,4.35-10.3,4.43c-0.21-1.31-0.46-2.58-0.65-3.74
						C408.79,213.18,416.61,213.23,419.74,212.49z"/>
				</g>
			</g>
			<g>
				<g>
					<g>
						<path style="fill:#FFC68A;" d="M418.09,279.48c-0.05,1.32-0.11,2.67-0.18,4.02c-0.64,13.27-2.06,27.37-2.06,27.37l-6.14-0.85
							l-0.84-0.12l-0.55-30.42H418.09z"/>
						<path style="opacity:0.5;fill:#FFC68A;" d="M418.09,279.48c-0.05,1.32-0.11,2.67-0.18,4.02c-1.79,0.26-5.37,0.66-7.49,0.23
							l-0.71,26.29l-0.84-0.12l-0.55-30.42H418.09z"/>
						<path style="fill:#143C4A;" d="M417.593,313.148c-0.055-0.776-0.212-1.54-0.369-2.302c-0.032-0.154-0.064-0.308-0.125-0.453
							c-0.094-0.221-0.244-0.405-0.421-0.57c-0.404-0.377-1.027-0.484-1.502-0.201c-0.55,0.327-1.221,0.453-1.849,0.324
							c-0.607-0.125-1.147-0.463-1.653-0.821c-0.506-0.357-1-0.744-1.57-0.988c-0.57-0.244-1.24-0.33-1.804-0.072
							c-0.563,0.258-0.957,0.927-0.766,1.516c-2.069,0.176-4.235,0.802-6.104,1.708c-0.378,0.183-0.758,0.387-1.042,0.697
							c-0.284,0.31-0.459,0.749-0.356,1.157L417.593,313.148z"/>
					</g>
					<g>
						<path style="fill:#FFC68A;" d="M426.58,279.48c-0.06,1.68-0.14,3.39-0.23,5.11c-0.67,12.95-2.01,26.28-2.01,26.28l-5.96-0.83
							l-1.02-0.14l-0.55-30.42H426.58z"/>
						<path style="opacity:0.5;fill:#FFC68A;" d="M426.58,279.48c-0.06,1.68-0.14,3.39-0.23,5.11c-2.84,0.55-7.97,0.16-7.97,0.16
							v25.29l-1.02-0.14l-0.55-30.42H426.58z"/>
						<path style="fill:#143C4A;" d="M426.083,313.148c-0.055-0.776-0.212-1.54-0.369-2.302c-0.032-0.154-0.064-0.308-0.125-0.453
							c-0.094-0.221-0.244-0.405-0.42-0.57c-0.404-0.377-1.027-0.484-1.502-0.201c-0.55,0.327-1.221,0.453-1.849,0.324
							c-0.607-0.125-1.147-0.463-1.653-0.821c-0.506-0.357-1-0.744-1.57-0.988c-0.57-0.244-1.24-0.33-1.804-0.072
							c-0.564,0.258-0.957,0.927-0.766,1.516c-2.069,0.176-4.235,0.802-6.104,1.708c-0.378,0.183-0.758,0.387-1.042,0.697
							c-0.284,0.31-0.459,0.749-0.356,1.157L426.083,313.148z"/>
					</g>
				</g>
				<g>
					<path style="fill:#143C4A;" d="M431.88,282.4c-1.43,0.6-4.08,0.86-7.15,0.93c-0.33,0.01-0.66,0.01-1,0.01
						c-7.78,0.08-17.61-0.94-17.61-0.94s-1.37-33.87-1.24-39.25c0.12-5.38,4.06-12.79,4.06-12.79l12.28-0.24l1.06-0.02l1.53-0.03
						c3.06,1.18,6.44,7.2,7.19,11.7S431.88,282.4,431.88,282.4z"/>
					<g style="opacity:0.5;">
						<path style="fill:#143C4A;" d="M424.73,283.33c-0.33,0.01-0.66,0.01-1,0.01c-0.06-6.77-0.39-35.82-0.61-42.17
							c-0.16-4.79-1.22-8.88-1.9-11.05l1.06-0.02c0.69,2.28,1.68,6.29,1.84,11.03C424.34,247.49,424.67,276.56,424.73,283.33z"/>
					</g>
				</g>
			</g>
			<g>
				<g>
					<g>
						<path style="fill:#FFC68A;" d="M429.185,188.286c-0.135-0.157-0.283-0.252-0.436-0.319c0.032-0.846-0.01-1.683-0.037-2.47
							c-0.035-0.971-0.549-1.825-1.35-2.263c-1.966-1.077-5.888-2.774-9.096-1.352c-0.713,0.317-1.256,0.966-1.493,1.75
							c-0.416,1.382-0.72,2.019-1.221,4.407c-0.187,0.891-0.337,1.759-0.435,2.546c-0.157,1.312-0.153,2.389,0.14,2.934
							c1.171,2.165,7.951,2.533,11.321-0.401c0.549-0.477,0.957-0.999,1.269-1.546C429.108,190.841,429.828,189.036,429.185,188.286
							z"/>
						<g>
							<path style="fill:#FFD5A8;" d="M423.389,191.121c-0.159,0.715-0.868,1.166-1.584,1.007c-0.715-0.159-1.166-0.868-1.007-1.584
								c0.159-0.715,0.869-1.166,1.584-1.007C423.098,189.696,423.549,190.405,423.389,191.121z"/>
							<path style="fill:#FFD5A8;" d="M416.328,189.547c-0.131,0.59-0.637,1.004-1.214,1.038c0.098-0.787,0.249-1.655,0.435-2.546
								C416.13,188.28,416.47,188.909,416.328,189.547z"/>
							<path style="fill:#EDAF6B;" d="M418.926,186.51c0.119,0.357,0.072,0.766-0.061,1.124c-0.131,0.363-0.344,0.685-0.579,0.977
								c-0.122,0.146-0.253,0.275-0.325,0.396c-0.077,0.116-0.09,0.25-0.06,0.398c0.062,0.296,0.35,0.533,0.7,0.655
								c-0.362,0.037-0.813-0.141-0.98-0.563c-0.089-0.197-0.079-0.459,0.026-0.661c0.106-0.199,0.242-0.327,0.347-0.465
								c0.228-0.271,0.433-0.555,0.603-0.858C418.763,187.21,418.886,186.882,418.926,186.51z"/>
							<path style="fill:#523329;" d="M420.35,186.158c0.173-0.102,0.348-0.123,0.531-0.107c0.18,0.021,0.359,0.079,0.525,0.165
								c0.168,0.082,0.31,0.216,0.414,0.365c0.113,0.144,0.167,0.319,0.205,0.483c0.013,0.056-0.022,0.112-0.078,0.126
								c-0.042,0.01-0.084-0.007-0.108-0.04l-0.007-0.01c-0.089-0.122-0.176-0.235-0.28-0.321c-0.1-0.091-0.216-0.15-0.335-0.196
								c-0.242-0.099-0.514-0.056-0.791-0.139l-0.037-0.011c-0.091-0.027-0.142-0.123-0.115-0.214
								C420.286,186.214,420.315,186.179,420.35,186.158z"/>
							<path style="fill:#523329;" d="M418.203,185.987c-0.287-0.042-0.514-0.196-0.776-0.21c-0.128-0.008-0.258-0.004-0.386,0.036
								c-0.13,0.034-0.257,0.099-0.39,0.172l-0.011,0.006c-0.051,0.028-0.114,0.01-0.142-0.041c-0.021-0.038-0.016-0.083,0.01-0.115
								c0.104-0.132,0.227-0.267,0.391-0.35c0.157-0.09,0.343-0.152,0.53-0.154c0.186-0.008,0.373,0.016,0.545,0.073
								c0.172,0.064,0.322,0.157,0.435,0.323c0.054,0.078,0.033,0.185-0.045,0.239c-0.037,0.025-0.08,0.034-0.121,0.028
								L418.203,185.987z"/>
							<path style="fill:#EDAF6B;" d="M417.957,191.108c0.459,0.09,0.877,0.162,1.25,0.074c0.186-0.038,0.36-0.12,0.519-0.244
								c0.168-0.117,0.308-0.281,0.48-0.448c-0.03,0.232-0.111,0.469-0.275,0.659c-0.15,0.201-0.389,0.344-0.641,0.401
								c-0.254,0.054-0.513,0.032-0.742-0.051C418.32,191.418,418.111,191.291,417.957,191.108z"/>
							<path style="fill:#523329;" d="M420.68,188.365c-0.092,0.412-0.366,0.702-0.612,0.647c-0.246-0.055-0.371-0.434-0.279-0.846
								c0.092-0.412,0.366-0.702,0.612-0.647C420.646,187.574,420.771,187.953,420.68,188.365z"/>
							<path style="fill:#523329;" d="M417.515,187.661c-0.092,0.412-0.366,0.702-0.612,0.647c-0.246-0.055-0.371-0.434-0.279-0.846
								c0.092-0.412,0.366-0.702,0.612-0.647C417.481,186.87,417.606,187.248,417.515,187.661z"/>
							<path style="fill:#EDAF6B;" d="M428.17,189.82c-0.05-0.186-0.203-0.306-0.361-0.359c-0.16-0.057-0.329-0.034-0.491,0.016
								c-0.32,0.115-0.629,0.329-0.893,0.56c-0.066,0.058-0.165,0.051-0.223-0.015c-0.053-0.061-0.051-0.151,0.001-0.21
								c0.194-0.218,0.479-0.272,0.72-0.263c0.124,0.005,0.247,0.029,0.371,0.083c0.122,0.053,0.247,0.156,0.299,0.297
								c0.102,0.281-0.025,0.562-0.229,0.707c-0.206,0.142-0.45,0.164-0.666,0.131c0.216-0.041,0.427-0.115,0.56-0.258
								c0.13-0.13,0.169-0.347,0.097-0.475c-0.062-0.126-0.249-0.175-0.441-0.176c-0.189-0.005-0.37,0.054-0.476,0.165l-0.222-0.224
								c0.303-0.253,0.639-0.466,1.044-0.554c0.2-0.041,0.429-0.026,0.611,0.082C428.049,189.43,428.186,189.624,428.17,189.82z"/>
						</g>
					</g>
					<path style="fill:#523329;" d="M434.937,205.306c-0.656-1.496-1.475-2.919-2.083-4.435c-0.608-1.516-1.003-3.169-0.754-4.783
						c0.158-1.026,0.569-2,0.729-3.026c0.195-1.254-0.002-2.566-0.556-3.708c-0.718-1.479-2.037-2.752-2.126-4.393
						c0,0-0.271-3.903-4.876-4.997c-2.324-0.552-4.215-0.268-5.647,0.273c-2.273,0.858-3.913,2.902-4.39,5.284
						c-0.637,3.18-0.219,6.64-0.219,6.64c-0.111-1.616,1.346-7.353,1.346-7.353c1.069,0.287,4.198-1.245,5.668-1.115
						c2.206,0.196,2.138,2.312,2.138,2.312s-0.048,1.171,0.231,2.198c-0.174,0.479-0.199,0.999-0.03,1.471
						c0.16,0.418,0.404,0.684,0.466,0.951c0.076,0.242-0.047,0.55-0.29,0.694l-0.006,0.003c-0.076,0.044-0.11,0.138-0.077,0.223
						c0.036,0.093,0.142,0.139,0.235,0.103c0.418-0.163,0.709-0.624,0.654-1.103c-0.056-0.459-0.286-0.789-0.33-1.067
						c-0.015-0.071-0.006-0.144-0.008-0.216c0.302-0.202,1.481-0.965,2.513-1.27c0.924-0.273,1.869,0.562,1.608,1.489
						c-0.003,0.009-0.005,0.017-0.008,0.026c-0.262,0.872-2.546,3.716-4.257,4.712l-1.388,6.544
						c3.27,5.994,2.327,13.213,2.327,13.213c1.055-0.221,2.054-0.443,3.109-0.664c1.423-0.299,2.872-0.607,4.14-1.318
						c1.268-0.712,2.352-1.903,2.564-3.342C435.788,207.509,435.4,206.362,434.937,205.306z"/>
				</g>
			</g>
		</g>
		<g>
			<g>
				<polygon style="fill:#CF3F3C;" points="418.473,327.811 418.068,323.913 399.471,323.913 399.876,327.811 				"/>
				<polygon style="fill:#CF3F3C;" points="414.422,343.598 414.017,339.7 395.42,339.7 395.825,343.598 				"/>
				<polygon style="fill:#CF3F3C;" points="410.372,359.385 409.967,355.487 391.369,355.487 391.774,359.385 				"/>
				<polygon style="fill:#CF3F3C;" points="406.321,375.172 405.916,371.274 387.319,371.274 387.724,375.172 				"/>
				<polygon style="fill:#CF3F3C;" points="399.11,394.781 404.191,394.781 422.577,313.075 417.495,313.075 				"/>
				<g>
					<g>
						<polygon style="fill:#CF3F3C;" points="381.789,394.781 386.87,394.781 405.255,313.075 400.174,313.075 						"/>
						<polygon style="opacity:0.5;fill:#CF3F3C;" points="401.739,313.08 383.349,394.78 381.789,394.78 400.179,313.08 						"/>
					</g>
					<rect x="381.453" y="393.734" style="fill:#BA3836;" width="6.25" height="1.048"/>
				</g>
				<rect x="398.619" y="393.734" style="fill:#BA3836;" width="6.25" height="1.048"/>
			</g>
			<g>
				<g>
					
						<rect x="415.167" y="316.563" transform="matrix(-1.836970e-16 1 -1 -1.836970e-16 742.9777 -91.2541)" style="fill:#F05956;" width="3.898" height="18.597"/>
					<polygon style="opacity:0.8;fill:#F05956;" points="423.389,324.91 411.159,324.91 410.829,323.91 423.059,323.91 					"/>
				</g>
				<g>
					
						<rect x="420.858" y="332.35" transform="matrix(-1.836970e-16 1 -1 -1.836970e-16 764.4557 -81.158)" style="fill:#F05956;" width="3.898" height="18.597"/>
					<polygon style="opacity:0.8;fill:#F05956;" points="428.639,340.7 416.409,340.7 416.079,339.7 428.309,339.7 					"/>
				</g>
				<g>
					
						<rect x="426.549" y="348.137" transform="matrix(-1.836970e-16 1 -1 -1.836970e-16 785.9337 -71.0618)" style="fill:#F05956;" width="3.898" height="18.597"/>
					<polygon style="opacity:0.8;fill:#F05956;" points="433.806,356.487 421.576,356.487 421.246,355.487 433.476,355.487 					"/>
				</g>
				<g>
					
						<rect x="432.24" y="363.924" transform="matrix(-1.836970e-16 1 -1 -1.836970e-16 807.4119 -60.9656)" style="fill:#F05956;" width="3.898" height="18.597"/>
					<polygon style="opacity:0.8;fill:#F05956;" points="438.972,372.274 426.742,372.274 426.412,371.274 438.642,371.274 					"/>
				</g>
				<g>
					<polygon style="fill:#F05956;" points="434.138,394.781 429.057,394.781 402.183,313.075 407.264,313.075 					"/>
					<rect x="428.334" y="393.734" style="fill:#BA3836;" width="6.25" height="1.048"/>
				</g>
				<g>
					<polygon style="fill:#F05956;" points="451.459,394.781 446.378,394.781 419.504,313.075 424.585,313.075 					"/>
					<rect x="445.626" y="393.734" style="fill:#BA3836;" width="6.25" height="1.048"/>
				</g>
				<g>
					<path style="fill:#F05956;" d="M396.87,316.464v-2.899c0-0.276,0.224-0.499,0.5-0.499h30.629c0.276,0,0.5,0.224,0.5,0.499
						v2.899c0,0.276-0.224,0.5-0.5,0.5H397.37C397.094,316.963,396.87,316.74,396.87,316.464z"/>
					<path style="opacity:0.8;fill:#F05956;" d="M428.499,313.56v1.95c0-0.27-0.22-0.5-0.5-0.5h-30.63c-0.28,0-0.5,0.23-0.5,0.5
						v-1.95c0-0.27,0.22-0.5,0.5-0.5h30.63C428.279,313.06,428.499,313.29,428.499,313.56z"/>
				</g>
			</g>
		</g>
	</g>
	<g>
		<g>
			<g>
				<rect x="110.854" style="fill:#B4CBDD;" width="2.439" height="156.964"/>
			</g>
			<g>
				<g>
					<path style="fill:#B4CBDD;" d="M382.226,179.764l-2.43-0.202l2.003-24.052c0.233-2.804,2.17-5.044,4.934-5.706
						c2.671-0.641,5.332,0.439,6.762,2.755l0.066,0.107c1.802,2.993,2.422,6.408,3.022,9.71c0.122,0.673,0.244,1.344,0.376,2.01
						c1.153,5.825,3.003,9.753,5.823,12.363l-1.656,1.79c-3.218-2.978-5.302-7.324-6.56-13.68c-0.134-0.678-0.259-1.362-0.383-2.047
						c-0.587-3.229-1.142-6.278-2.71-8.883l-0.054-0.089c-1.053-1.703-2.817-1.976-4.119-1.665
						c-1.307,0.313-2.896,1.427-3.071,3.536L382.226,179.764z"/>
				</g>
				<g>
					<rect x="383.637" style="fill:#B4CBDD;" width="2.439" height="84.608"/>
				</g>
			</g>
		</g>
		<g>
			<g>
				<path style="fill:#FFFFFF;" d="M364.734,305.378L105.57,283.804c-3.942-0.328-6.872-3.79-6.544-7.733l11.876-142.666
					c0.22-2.64,2.538-4.602,5.178-4.382l263.88,21.966c2.64,0.22,4.602,2.538,4.382,5.178l-11.876,142.666
					C372.138,302.776,368.676,305.706,364.734,305.378z"/>
				<g>
					<path style="fill:#B4CBDD;" d="M383.91,161.353l-273.44-22.762l0.432-5.185c0.22-2.64,2.538-4.602,5.178-4.382l263.88,21.966
						c2.64,0.22,4.602,2.538,4.382,5.178L383.91,161.353z"/>
					<g>
						<path style="fill:#FFF0EB;" d="M354.325,153.873c-0.114,1.37-1.317,2.389-2.688,2.275c-1.37-0.114-2.389-1.317-2.275-2.688
							c0.114-1.37,1.318-2.389,2.688-2.275C353.421,151.299,354.439,152.503,354.325,153.873z"/>
						<path style="fill:#FFF0EB;" d="M364.959,154.758c-0.114,1.37-1.317,2.389-2.688,2.275c-1.37-0.114-2.389-1.317-2.275-2.688
							c0.114-1.37,1.317-2.389,2.688-2.275C364.055,152.184,365.073,153.388,364.959,154.758z"/>
						<path style="fill:#FFF0EB;" d="M375.593,155.643c-0.114,1.37-1.317,2.389-2.688,2.275c-1.37-0.114-2.389-1.317-2.275-2.688
							c0.114-1.37,1.317-2.389,2.688-2.275C374.688,153.07,375.707,154.273,375.593,155.643z"/>
					</g>
				</g>
			</g>
			<g>
				<g>
					<g>
						<path style="fill:#F05956;" d="M235.785,185.332l-2.662-0.222l-0.286,3.433l-3.689-0.307l0.286-3.433l-8.803-0.733
							l0.212-2.545l8.569-9.726l3.968,0.33l-7.963,9.236l4.39,0.365l0.255-3.059l3.573,0.297l-0.255,3.059l2.662,0.222
							L235.785,185.332z"/>
						<path style="fill:#F05956;" d="M237.309,180.686c0.449-5.394,3.692-8.203,7.708-7.869c4.04,0.336,6.752,3.641,6.303,9.035
							c-0.449,5.394-3.67,8.206-7.71,7.87C239.594,189.388,236.86,186.08,237.309,180.686z M247.513,181.536
							c0.309-3.712-0.871-5.362-2.763-5.52c-1.867-0.156-3.303,1.277-3.612,4.989c-0.309,3.713,0.871,5.363,2.738,5.518
							C245.768,186.681,247.204,185.249,247.513,181.536z"/>
						<path style="fill:#F05956;" d="M267.746,187.993l-2.662-0.222l-0.286,3.433l-3.689-0.307l0.286-3.433l-8.803-0.733
							l0.212-2.545l8.569-9.726l3.968,0.33l-7.963,9.236l4.39,0.365l0.255-3.059l3.573,0.297l-0.255,3.059l2.662,0.222
							L267.746,187.993z"/>
					</g>
				</g>
				<g>
					<g>
						
							<rect x="202.533" y="197.135" transform="matrix(0.9966 0.083 -0.083 0.9966 18.9769 -17.9016)" style="fill:#B4CBDD;" width="44.766" height="44.564"/>
						<path style="opacity:0.4;fill:#B4CBDD;" d="M249.07,199.07l-3.7,44.41l-44.61-3.72l0.22-2.67l23.613,1.962
							c10.559,0.877,19.829-6.971,20.707-17.529l1.88-22.613L249.07,199.07z"/>
					</g>
					<g>
						
							<rect x="247.164" y="200.374" transform="matrix(0.9966 0.083 -0.083 0.9966 19.3798 -21.1186)" style="fill:#A1BCD1;" width="33.33" height="44.564"/>
						<path style="opacity:0.4;fill:#A1BCD1;" d="M278.85,243.09l-0.26,3.15l-33.22-2.76l3.7-44.41l2.56,0.21l-1.519,18.219
							c-1.061,12.72,8.39,23.892,21.11,24.954L278.85,243.09z"/>
					</g>
					
						<rect x="248.389" y="228.756" transform="matrix(0.9966 0.083 -0.083 0.9966 20.2182 -20.2218)" style="fill:#F05956;" width="10.155" height="8.894"/>
					<g>
						
							<rect x="267.995" y="229.208" transform="matrix(0.9966 0.083 -0.083 0.9966 20.0405 -21.8211)" style="fill:#FCC574;" width="9.218" height="2.076"/>
						
							<rect x="265.678" y="232.609" transform="matrix(0.9966 0.083 -0.083 0.9966 20.3184 -21.7017)" style="fill:#FCC574;" width="11.249" height="2.076"/>
					</g>
					<polygon style="fill:#B4CBDD;" points="284.228,221.187 251.013,218.422 249.07,199.068 282.285,201.833 					"/>
					<g>
						<polygon style="fill:#B4CBDD;" points="243.5,217.796 198.888,214.083 204.06,195.321 248.672,199.035 						"/>
						<path style="opacity:0.4;fill:#B4CBDD;" d="M244.03,215.87l-0.53,1.93l-44.61-3.72l5.17-18.76l1.82,0.15l0,0
							c-2.411,8.749,3.723,17.536,12.767,18.288L244.03,215.87z"/>
						<polygon style="opacity:0.5;fill:#B4CBDD;" points="249.07,199.07 247.56,217.21 246.87,219.71 202.74,216.04 202.87,214.41 
							243.5,217.8 248.67,199.04 						"/>
					</g>
					<g>
						<polygon style="fill:#B4CBDD;" points="284.228,221.187 251.013,218.422 249.07,199.068 282.285,201.833 						"/>
						<polygon style="opacity:0.5;fill:#A1BCD1;" points="280.7,220.9 280.57,222.46 248.43,219.79 247.84,213.87 249.07,199.07 
							251.01,218.42 						"/>
						<path style="opacity:0.4;fill:#B4CBDD;" d="M284.23,221.19l-33.22-2.77l-0.23-2.28l13.524,1.126
							c8.897,0.741,16.286-6.772,15.396-15.656l0,0l2.59,0.22L284.23,221.19z"/>
					</g>
				</g>
				<g>
					<polygon style="fill:#FCC574;" points="379.34,262.95 259.33,266.42 213.11,267.75 97.06,271.1 96.95,267.44 96.67,257.61 
						147.37,256.15 147.38,256.15 210.6,254.32 245.18,253.32 256.79,252.99 378.95,249.47 379.29,261.07 					"/>
					
						<text transform="matrix(0.9996 -0.0288 0.0288 0.9996 99.8663 268.0118)" style="fill:#FFFFFF; font-family:'Montserrat-Bold'; font-size:10.3209px;">ERROR</text>
					
						<text transform="matrix(0.9996 -0.0288 0.0288 0.9996 147.5562 266.6363)" style="fill:#FFFFFF; font-family:'Montserrat-Bold'; font-size:10.3209px;">ERROR</text>
					
						<text transform="matrix(0.9996 -0.0288 0.0288 0.9996 195.2452 265.2609)" style="fill:#FFFFFF; font-family:'Montserrat-Bold'; font-size:10.3209px;">ERROR</text>
					
						<text transform="matrix(0.9996 -0.0288 0.0288 0.9996 242.9341 263.8854)" style="fill:#FFFFFF; font-family:'Montserrat-Bold'; font-size:10.3209px;">ERROR</text>
					
						<text transform="matrix(0.9996 -0.0288 0.0288 0.9996 290.6241 262.5099)" style="fill:#FFFFFF; font-family:'Montserrat-Bold'; font-size:10.3209px;">ERROR</text>
					
						<text transform="matrix(0.9996 -0.0288 0.0288 0.9996 338.3149 261.1344)" style="fill:#FFFFFF; font-family:'Montserrat-Bold'; font-size:10.3209px;">ERROR</text>
					<path style="opacity:0.5;fill:#FCC574;" d="M245.5,266.659l-32.39,1.091L97.06,271.1l-0.11-3.66
						c22.12-0.89,96.67-0.06,99.38-0.78c2.47-0.65-33.12-7.52-48.95-10.51l63.22-1.83C215.24,257.55,245.5,266.659,245.5,266.659z"
						/>
					<path style="opacity:0.5;fill:#FCC574;" d="M379.34,262.95l-120.01,3.47l-14.15-13.1l11.61-0.33l36.04,4.51l32.631,5.409
						c4.013,0.665,8.088,0.879,12.149,0.638l41.68-2.477L379.34,262.95z"/>
				</g>
				<g>
					<polygon style="fill:#FCC574;" points="378.91,271.72 377.62,281.64 377.17,285.1 97.11,248.85 98.84,235.47 106.98,236.52 
											"/>
					<path style="opacity:0.5;fill:#FCC574;" d="M377.62,281.64l-0.45,3.46L97.11,248.85l1.73-13.38l8.14,1.05
						c0.35,3.92,1.54,8.46,5.09,9.75C117.98,248.42,333.02,275.95,377.62,281.64z"/>
					
						<text transform="matrix(0.9917 0.1284 -0.1284 0.9917 100.4067 246.308)" style="fill:#FFFFFF; font-family:'Montserrat-Bold'; font-size:10.3209px;">ERROR</text>
					
						<text transform="matrix(0.9917 0.1284 -0.1284 0.9917 147.7221 252.4321)" style="fill:#FFFFFF; font-family:'Montserrat-Bold'; font-size:10.3209px;">ERROR</text>
					
						<text transform="matrix(0.9917 0.1284 -0.1284 0.9917 195.0365 258.556)" style="fill:#FFFFFF; font-family:'Montserrat-Bold'; font-size:10.3209px;">ERROR</text>
					
						<text transform="matrix(0.9917 0.1284 -0.1284 0.9917 242.3519 264.6801)" style="fill:#FFFFFF; font-family:'Montserrat-Bold'; font-size:10.3209px;">ERROR</text>
					
						<text transform="matrix(0.9917 0.1284 -0.1284 0.9917 289.6664 270.804)" style="fill:#FFFFFF; font-family:'Montserrat-Bold'; font-size:10.3209px;">ERROR</text>
					
						<text transform="matrix(0.9917 0.1284 -0.1284 0.9917 336.9827 276.9282)" style="fill:#FFFFFF; font-family:'Montserrat-Bold'; font-size:10.3209px;">ERROR</text>
				</g>
			</g>
		</g>
	</g>
	<g>
		<g>
			<path style="fill:#D4E9FA;" d="M77.885,168.896v-5.042h-3.56c-0.265-1.103-0.7-2.137-1.276-3.078l2.518-2.518l-3.565-3.565
				l-2.518,2.518c-0.941-0.576-1.975-1.011-3.078-1.277v-3.559h-5.042v3.559c-1.103,0.266-2.137,0.7-3.078,1.277l-2.518-2.518
				l-3.565,3.565l2.518,2.518c-0.576,0.941-1.011,1.975-1.277,3.078h-3.56v5.042h3.56c0.265,1.103,0.7,2.137,1.277,3.078
				l-2.518,2.518l3.565,3.565l2.518-2.518c0.941,0.576,1.975,1.011,3.078,1.277v3.559h5.042v-3.559
				c1.103-0.266,2.137-0.7,3.078-1.277l2.518,2.518l3.565-3.565l-2.518-2.518c0.576-0.941,1.011-1.975,1.276-3.078H77.885z
				 M63.885,170c-2.002,0-3.625-1.623-3.625-3.625c0-2.002,1.623-3.625,3.625-3.625c2.002,0,3.625,1.623,3.625,3.625
				C67.51,168.377,65.887,170,63.885,170z"/>
			<path style="fill:#D4E9FA;" d="M86.76,148.358v-3.466h-2.447c-0.183-0.758-0.481-1.469-0.878-2.116l1.731-1.731l-2.451-2.451
				l-1.731,1.731c-0.647-0.396-1.358-0.695-2.116-0.878V137h-3.466v2.447c-0.758,0.182-1.469,0.481-2.116,0.878l-1.731-1.731
				l-2.451,2.451l1.731,1.731c-0.396,0.647-0.695,1.358-0.878,2.116H67.51v3.466h2.447c0.182,0.758,0.481,1.469,0.878,2.116
				l-1.731,1.731l2.451,2.451l1.731-1.731c0.647,0.396,1.358,0.695,2.116,0.878v2.447h3.466v-2.447
				c0.758-0.182,1.469-0.481,2.116-0.878l1.731,1.731l2.451-2.451l-1.731-1.731c0.396-0.647,0.695-1.358,0.878-2.116H86.76z
				 M77.135,149.117c-1.376,0-2.492-1.116-2.492-2.492s1.116-2.492,2.492-2.492c1.376,0,2.492,1.116,2.492,2.492
				S78.512,149.117,77.135,149.117z"/>
		</g>
		<g>
			<path style="fill:#D4E9FA;" d="M412.953,120.221v-3.466h-2.447c-0.183-0.758-0.481-1.469-0.878-2.116l1.731-1.731l-2.451-2.451
				l-1.731,1.731c-0.647-0.396-1.358-0.695-2.116-0.878v-2.447h-3.466v2.447c-0.758,0.182-1.469,0.481-2.116,0.878l-1.731-1.731
				l-2.451,2.451l1.731,1.731c-0.396,0.647-0.695,1.358-0.878,2.116h-2.447v3.466h2.447c0.182,0.758,0.481,1.469,0.878,2.116
				l-1.731,1.731l2.451,2.451l1.731-1.731c0.647,0.396,1.358,0.695,2.116,0.878v2.447h3.466v-2.447
				c0.758-0.183,1.469-0.481,2.116-0.878l1.731,1.731l2.451-2.451l-1.731-1.731c0.396-0.647,0.695-1.358,0.878-2.116H412.953z
				 M403.328,120.98c-1.376,0-2.492-1.116-2.492-2.492c0-1.376,1.116-2.492,2.492-2.492c1.376,0,2.492,1.116,2.492,2.492
				C405.82,119.865,404.704,120.98,403.328,120.98z"/>
			<path style="fill:#D4E9FA;" d="M429.895,129.846v-3.466h-2.447c-0.182-0.758-0.481-1.469-0.878-2.116l1.731-1.731l-2.451-2.451
				l-1.731,1.731c-0.647-0.396-1.358-0.695-2.116-0.878v-2.447h-3.466v2.447c-0.758,0.182-1.469,0.481-2.116,0.878l-1.731-1.731
				l-2.451,2.451l1.731,1.731c-0.396,0.647-0.695,1.358-0.878,2.116h-2.447v3.466h2.447c0.183,0.758,0.481,1.469,0.878,2.116
				l-1.731,1.731l2.451,2.451l1.731-1.731c0.647,0.396,1.358,0.695,2.116,0.878v2.447h3.466v-2.447
				c0.758-0.183,1.469-0.481,2.116-0.878l1.731,1.731l2.451-2.451l-1.731-1.731c0.396-0.647,0.695-1.358,0.878-2.116H429.895z
				 M420.27,130.605c-1.376,0-2.492-1.116-2.492-2.492c0-1.376,1.116-2.492,2.492-2.492c1.376,0,2.492,1.116,2.492,2.492
				C422.762,129.49,421.646,130.605,420.27,130.605z"/>
		</g>
	</g>
	<g>
		<g>
			<g>
				<g>
					<path style="fill:#FFB894;" d="M319.646,322.569c0,0-3.036,15.711-4.108,21.241c-0.549,2.791-1.023,5.847-1.32,8.987
						c-1.361,14.594-6.078,39.063-6.078,39.063l-1.004-0.109l-4.908-0.526l1.89-36.101l0.655-12.642l1.029-19.554l11.948-8.49
						C317.75,314.438,319.5,317.22,319.646,322.569z"/>
					<path style="opacity:0.5;fill:#FFB894;" d="M315.538,343.81c-0.549,2.791-1.023,5.847-1.32,8.987
						c-1.361,14.594-6.078,39.063-6.078,39.063l-1.004-0.109l5.033-35.222l-8.051-1.405l0.655-12.642
						c4.772,0.469,10.742,1.19,10.742,1.19S315.53,343.72,315.538,343.81z"/>
					<path style="fill:#6376BF;" d="M307.705,394.743c0.667,0.091,1.516-0.735,1.637-1.398c0.093-0.508,0.121-1.027,0.082-1.541
						c-0.019-0.249-0.059-0.51-0.213-0.707c-0.189-0.241-0.51-0.334-0.813-0.383c-1.933-0.311-3.956,0.557-5.779-0.158
						c0.318-0.691,0.383-1.496,0.181-2.23c-0.079-0.286-0.208-0.576-0.45-0.749c-0.556-0.396-1.305,0.015-1.886,0.372
						c-2.197,1.35-4.839,1.961-7.405,1.715c-0.584-0.056-1.169-0.155-1.754-0.106c-0.585,0.049-1.185,0.27-1.543,0.735
						s-0.384,1.205,0.048,1.601L307.705,394.743z"/>
				</g>
				<g>
					<path style="fill:#F05956;" d="M308.941,311.897c0,0-3.869,6.776-4.232,10.727c-0.362,3.951-2.165,30.227-2.165,30.227
						l12.38,1.334l6.825-43.455L308.941,311.897z"/>
					<polygon style="opacity:0.5;fill:#F05956;" points="308.883,353.519 318.464,331.654 314.925,354.184 					"/>
				</g>
			</g>
			<g>
				<g>
					<path style="fill:#FFB894;" d="M358.395,378.171l-1.262,1.792l-2.15,3.078l-25.472-15.823c-1.852-1.147-3.155-2.996-3.63-5.122
						l-1.81-5.98l-1.38-4.564l-2.426-12.843l-1.525-8.025l-0.002-0.02l-1.068-5.656l1.978-2.43l-0.001-0.01l7.279-8.938
						c0,0,3.051,4.06,3.214,15.432c0.006,0.07,0.013,0.14,0.01,0.22c0.053,3.449,1.936,12.978,3.595,22.255
						c0.435,2.461,0.859,5.234,1.263,8.129C346.127,367.962,358.395,378.171,358.395,378.171z"/>
					<path style="opacity:0.5;fill:#FFB894;" d="M358.395,378.171l-1.262,1.792c-6.169-4.438-23.217-16.751-24.236-17.793
						c-1.25-1.262-0.62-6.802-0.62-6.802l-8.206,0.748l-1.38-4.564l-2.426-12.843l9.875-9.647c0.006,0.07,0.013,0.14,0.01,0.22
						c0.053,3.449,1.936,12.978,3.595,22.255c0.435,2.461,0.859,5.234,1.263,8.129C346.127,367.962,358.395,378.171,358.395,378.171
						z"/>
					<path style="fill:#6376BF;" d="M360.656,380.063c0.436-0.513,0.197-1.673-0.296-2.132c-0.378-0.352-0.8-0.655-1.255-0.899
						c-0.22-0.118-0.462-0.225-0.71-0.201c-0.305,0.03-0.556,0.25-0.76,0.479c-1.303,1.461-1.661,3.634-3.245,4.784
						c-0.411-0.64-1.054-1.128-1.781-1.353c-0.284-0.088-0.598-0.135-0.874-0.024c-0.633,0.255-0.69,1.108-0.702,1.79
						c-0.046,2.578-0.953,5.133-2.543,7.163c-0.362,0.462-0.76,0.902-1.034,1.421c-0.274,0.519-0.411,1.144-0.212,1.696
						c0.199,0.552,0.809,0.973,1.375,0.822L360.656,380.063z"/>
				</g>
				<g>
					<path style="fill:#F05956;" d="M334.803,352.687l-2.79,0.455l-0.989,0.17l-8.508,1.398c0,0-5.275-25.808-5.982-29.71
						c-0.697-3.903,0.914-13.88,0.914-13.88l11.134-1.015L334.803,352.687z"/>
					<g style="opacity:0.5;">
						<polygon style="fill:#F05956;" points="332.013,353.142 331.025,353.313 325.255,310.409 326.251,310.319 						"/>
					</g>
				</g>
			</g>
		</g>
		<g>
			<g>
				<g>
					<g>
						<path style="fill:#FFB894;" d="M296.306,303.894l-22.534-6.805c-0.568-0.933-1.449-1.654-2.534-2.007
							c-0.147-0.048-0.303-0.089-0.455-0.06c-0.152,0.029-0.298,0.146-0.311,0.3c-0.012,0.14,0.082,0.263,0.165,0.377
							c0.295,0.404,0.508,0.867,0.623,1.354c-1.156,0.062-2.206-0.601-3.243-1.114c-0.266-0.131-0.656-0.22-0.801,0.038
							c-0.126,0.224,0.068,0.491,0.26,0.662c0.47,0.42,1.01,0.761,1.591,1.006c-0.711-0.264-1.422-0.529-2.133-0.794
							c-0.217-0.081-0.518-0.135-0.632,0.067c-0.091,0.16,0.017,0.357,0.129,0.501c0.597,0.768,1.445,1.339,2.381,1.602
							c-0.778-0.207-1.557-0.414-2.335-0.621c-0.095-0.025-0.201-0.05-0.29-0.007c-0.121,0.058-0.158,0.223-0.114,0.351
							c0.044,0.127,0.147,0.224,0.248,0.313c0.682,0.6,1.461,1.089,2.297,1.443c-0.368-0.026-0.736-0.052-1.104-0.078
							c-0.219-0.015-0.504,0.013-0.56,0.225c-0.053,0.199,0.152,0.366,0.335,0.459c0.926,0.47,1.993,0.606,3.03,0.553
							c0.745-0.038,1.48-0.169,2.21-0.325l21.748,9.445c1.881,0.554,3.859-0.539,4.419-2.44
							C299.258,306.438,298.187,304.448,296.306,303.894z"/>
						<path style="fill:#6376BF;" d="M280.049,298.424l-1.918,6.22c0,0,17.353,7.587,18.494,7.636
							c0.839,0.036,10.863-10.86,16.103-16.622c2.432-2.674,2.534-6.84,0.02-9.437c-1.31-1.353-0.973-3.627-3.006-1.962
							c-5.175,4.236-15.518,18.385-15.518,18.385L280.049,298.424z"/>
					</g>
					<polygon style="opacity:0.5;fill:#6376BF;" points="307.104,301.788 305.363,291.678 304.428,304.658 					"/>
				</g>
				<g>
					<g>
						<path style="fill:#FFB894;" d="M320.143,281.708l-1.61,1.445c-1.067,1.41-3.116,1.597-4.421,0.403l-1.615-1.478l-0.476-9.248
							l6.445-0.588L320.143,281.708z"/>
						<path style="fill:#F29272;" d="M312.27,277.684c0,0,3.607-0.37,4.876-2.051c0,0-1.715,4.034-4.769,4.139L312.27,277.684z"/>
					</g>
					<path style="fill:#6376BF;" d="M329.51,299.468c-0.309,5.641-0.928,10.638-0.928,10.638l-19.638,1.79
						c0,0-3.448-18.764-3.581-20.218c-0.182-2.002,2.759-6.417,5.83-8.745c0.281-0.216,0.566-0.403,0.841-0.579
						c0.161-0.105,0.314-0.189,0.467-0.273c0,0,3.131,2.727,7.638-0.696c0,0,0.169,0.095,0.446,0.271
						c0.223,0.13,0.531,0.313,0.872,0.533c1.444,0.862,3.69,2.254,4.874,3.12C328.148,286.629,329.82,293.837,329.51,299.468z"/>
					<g style="opacity:0.5;">
						
							<rect x="324.448" y="293.271" transform="matrix(0.9942 -0.1077 0.1077 0.9942 -30.6167 36.7513)" style="fill:#6376BF;" width="1" height="17.132"/>
					</g>
					<g style="opacity:0.5;">
						<path style="fill:#6376BF;" d="M321.457,282.188c-1.665,1.788-3.363,2.767-5.095,2.925c-0.219,0.02-0.449,0.031-0.671,0.021
							c-2.115-0.068-3.698-1.35-4.498-2.201c0.281-0.216,0.566-0.403,0.841-0.579c0.729,0.727,2.036,1.732,3.697,1.782
							c1.601,0.045,3.232-0.787,4.855-2.481C320.808,281.785,321.116,281.968,321.457,282.188z"/>
					</g>
				</g>
			</g>
			<g>
				<g>
					<polygon style="fill:#143C4A;" points="364.261,306.111 358.536,316.913 365.231,327.14 382.169,326.25 375.708,335.756 
						352.587,336.829 346.548,326.16 290.954,328.725 288.058,328.864 283.032,340.056 259.909,341.12 252.592,332.262 
						254.108,332.203 269.546,331.574 275.27,320.772 268.565,310.548 251.625,311.428 258.086,301.922 281.219,300.856 
						287.248,311.527 342.372,308.97 345.746,308.812 350.765,297.632 373.895,296.556 381.205,305.425 379.72,305.488 					"/>
					<path style="opacity:0.5;fill:#143C4A;" d="M290.954,328.725l-2.896,0.138l-5.026,11.192l-23.123,1.064l-7.318-8.857
						l1.517-0.06c2.217,1.953,8.236,6.781,12.779,6.265c5.67-0.659,19.926-5.561,21.386-15.316
						C289.254,316.633,290.396,322.785,290.954,328.725z"/>
					<path style="opacity:0.5;fill:#143C4A;" d="M381.205,305.425l-1.485,0.063c-0.993-1.03-2.138-2.229-3.279-3.491
						c-3.164-3.487-20.696-2.806-23.129-2.232c-2.433,0.574-7.005,13.128-9.053,14.638c-1.347,0.996-1.766-2.655-1.887-5.432
						l3.374-0.158l5.019-11.18l23.13-1.076L381.205,305.425z"/>
					<path style="opacity:0.5;fill:#143C4A;" d="M287.251,311.525L287.251,311.525c0.254,2.663,2.694,4.566,5.339,4.164
						l41.698-6.344L287.251,311.525z"/>
				</g>
				<g>
					<g>
						<path style="fill:#FFB894;" d="M334.352,315.203c-0.76-0.347-1.519-0.695-2.285-1.03c-1.221-0.536-2.425-1.066-3.585-1.657
							l-7.575,14.829l-3.552,0.165c0,0,1.71,3.492,5.436,3.066s4.389-3.546,4.389-3.546l0,0L334.352,315.203z"/>
						<path style="fill:#6376BF;" d="M337.841,300.996c-2.658-4.044-8.154-12.07-12.313-15.944
							c-2.334,2.232-4.627,4.499-6.607,7.051c0.073,0.091,0.132,0.191,0.211,0.278l11.932,13.276l-6.567,13.491l6.453,2.679
							c4.635-7.301,6.732-12.096,7.681-14.953C339.287,304.897,338.985,302.737,337.841,300.996z"/>
					</g>
					<polygon style="opacity:0.5;fill:#6376BF;" points="322.188,295.782 329.226,303.613 328.978,306.403 					"/>
				</g>
			</g>
		</g>
		<g>
			<g>
				<path style="fill:#FFB894;" d="M320.934,267.833c-0.27-0.166-0.528-0.199-0.77-0.169c-0.184-0.845-0.446-1.649-0.707-2.379
					c-0.33-0.914-1.08-1.571-1.976-1.743c-2.201-0.425-6.323-1.31-8.944,1.023c-0.582,0.52-0.902,1.304-0.888,2.122
					c0.025,1.443-0.025,2.643,0.227,5.07c0.094,0.906,0.215,1.778,0.362,2.558c0.251,1.297,0.583,2.322,1.028,2.751
					c1.775,1.704,7.858,0.275,10.172-3.548c0.342-0.565,0.577-1.143,0.733-1.724C321.584,270.905,321.9,268.429,320.934,267.833z"/>
				<g>
					<path style="fill:#F29272;" d="M311.384,269.203c0.223,0.304,0.303,0.708,0.284,1.089c-0.014,0.386-0.119,0.758-0.253,1.107
						c-0.072,0.177-0.157,0.339-0.188,0.477c-0.038,0.134-0.01,0.265,0.064,0.397c0.149,0.263,0.496,0.401,0.866,0.41
						c-0.333,0.146-0.818,0.114-1.105-0.237c-0.144-0.16-0.215-0.413-0.177-0.638c0.04-0.222,0.131-0.385,0.189-0.549
						c0.134-0.328,0.243-0.661,0.313-1.001C311.443,269.919,311.459,269.569,311.384,269.203z"/>
					<path style="fill:#523329;" d="M312.633,268.433c0.133-0.15,0.294-0.223,0.473-0.264c0.178-0.035,0.367-0.034,0.55-0.003
						c0.185,0.026,0.361,0.111,0.506,0.221c0.152,0.103,0.256,0.253,0.343,0.397c0.03,0.049,0.014,0.114-0.036,0.143
						c-0.037,0.022-0.082,0.019-0.115-0.005l-0.01-0.007c-0.122-0.089-0.239-0.17-0.364-0.22c-0.123-0.056-0.251-0.077-0.379-0.085
						c-0.261-0.02-0.506,0.104-0.796,0.109l-0.039,0.001c-0.095,0.002-0.173-0.074-0.175-0.169
						C312.589,268.506,312.605,268.464,312.633,268.433z"/>
					<path style="fill:#523329;" d="M310.536,268.925c-0.286,0.047-0.55-0.03-0.803,0.037c-0.124,0.031-0.247,0.074-0.357,0.152
						c-0.114,0.072-0.215,0.172-0.319,0.283l-0.008,0.009c-0.04,0.042-0.106,0.044-0.148,0.004c-0.031-0.03-0.04-0.074-0.026-0.113
						c0.059-0.158,0.134-0.324,0.265-0.452c0.122-0.134,0.28-0.249,0.457-0.309c0.175-0.064,0.36-0.099,0.542-0.097
						c0.183,0.008,0.354,0.051,0.513,0.174c0.075,0.058,0.088,0.166,0.03,0.241c-0.028,0.035-0.066,0.057-0.107,0.064
						L310.536,268.925z"/>
					<path style="fill:#F29272;" d="M311.863,273.878c0.465-0.054,0.885-0.114,1.213-0.311c0.166-0.093,0.306-0.224,0.42-0.391
						c0.124-0.163,0.207-0.362,0.321-0.573c0.042,0.23,0.037,0.48-0.06,0.712c-0.081,0.238-0.266,0.446-0.488,0.578
						c-0.225,0.129-0.479,0.187-0.722,0.178C312.304,274.061,312.067,274.005,311.863,273.878z"/>
					<path style="fill:#523329;" d="M313.62,270.435c0.038,0.421-0.134,0.78-0.385,0.803c-0.251,0.023-0.486-0.3-0.524-0.72
						c-0.038-0.421,0.134-0.78,0.385-0.803C313.347,269.692,313.581,270.014,313.62,270.435z"/>
					<path style="fill:#523329;" d="M310.391,270.729c0.038,0.421-0.134,0.78-0.385,0.803c-0.251,0.023-0.486-0.3-0.524-0.72
						c-0.038-0.421,0.134-0.78,0.385-0.803C310.118,269.986,310.352,270.309,310.391,270.729z"/>
					<path style="fill:#F29272;" d="M320.84,269.239c-0.105-0.162-0.286-0.229-0.454-0.232c-0.169-0.005-0.324,0.068-0.462,0.165
						c-0.27,0.208-0.499,0.505-0.68,0.806c-0.045,0.075-0.142,0.099-0.217,0.054c-0.069-0.042-0.094-0.128-0.063-0.2
						c0.118-0.267,0.373-0.406,0.606-0.47c0.119-0.033,0.244-0.048,0.378-0.034c0.132,0.013,0.283,0.073,0.376,0.191
						c0.183,0.236,0.148,0.543-0.002,0.744c-0.153,0.198-0.378,0.293-0.595,0.328c0.193-0.105,0.371-0.24,0.454-0.416
						c0.084-0.164,0.055-0.382-0.053-0.482c-0.097-0.101-0.29-0.091-0.473-0.034c-0.182,0.053-0.336,0.165-0.403,0.303l-0.28-0.146
						c0.212-0.334,0.466-0.638,0.825-0.846c0.177-0.1,0.4-0.156,0.607-0.109C320.605,268.905,320.796,269.047,320.84,269.239z"/>
				</g>
				<path style="fill:#523329;" d="M320.632,263.788c-1.484-2.436-6.608-1.97-6.608-1.97c0.129-0.325-0.05-0.715-0.344-0.905
					c-0.294-0.19-0.669-0.21-1.014-0.148c-0.36,0.065-0.722,0.228-0.93,0.529c-0.011-0.39-0.054-0.785-0.2-1.147
					c-0.147-0.362-0.407-0.689-0.762-0.852c-0.364-0.167-0.796-0.144-1.167,0.006c-0.371,0.15-0.685,0.417-0.945,0.721
					c-0.535,0.627-0.863,1.456-0.78,2.277c-0.233-0.248-0.467-0.495-0.7-0.743c-0.078-0.082-0.164-0.169-0.276-0.187
					c-0.121-0.019-0.238,0.049-0.332,0.127c-0.379,0.311-0.573,0.809-0.592,1.299c-0.018,0.49,0.123,0.974,0.321,1.423
					c0.156,0.354,0.36,0.688,0.595,1c-0.71,2.168,0.868,5.334,0.868,5.334c-0.238-2.05,0.353-3.347,0.808-4.018
					c0.452,0.184,1.064,0.382,1.84,0.506c1.75,0.28,3.354-1.781,4.254-1.818c0.9-0.037,1.055,0.831,1.055,0.831
					s0.196,2.837,0.684,3.374s1.529,1.284,1.88,1.348c0.351,0.065-0.076-3.46,1.875-3.112c2.354,0.419-0.079,3.987-0.079,3.987
					l-0.241,1.082C324.32,269.824,320.632,263.788,320.632,263.788z"/>
			</g>
		</g>
	</g>
	<g>
		<g>
			<g>
				<g>
					<path style="fill:#E28758;" d="M129.242,368.849c-1.486-0.852-3.025-1.713-4.56-2.614c-6.259,7.947-11.43,14.921-11.43,14.921
						l4.47,3.926l14.314-14.581C131.105,369.948,130.183,369.388,129.242,368.849z"/>
					<path style="fill:#143C4A;" d="M112.183,382.137c-0.482-0.471-0.35-1.648,0.099-2.151c0.344-0.385,0.737-0.726,1.167-1.01
						c0.208-0.138,0.439-0.267,0.689-0.265c0.307,0.001,0.577,0.198,0.801,0.407c1.431,1.335,1.988,3.466,3.671,4.466
						c0.351-0.675,0.946-1.22,1.649-1.511c0.275-0.113,0.583-0.189,0.868-0.104c0.653,0.196,0.789,1.04,0.863,1.718
						c0.282,2.563,1.42,5.024,3.19,6.9c0.402,0.427,0.84,0.828,1.16,1.32c0.32,0.492,0.514,1.101,0.367,1.669
						c-0.148,0.568-0.716,1.043-1.294,0.944L112.183,382.137z"/>
					<g>
						<path style="fill:#FCC574;" d="M148.47,325c0,0.23,0,0.47-0.01,0.72c0,0.33,0,0.68-0.01,1.04
							c-0.08,9.29-0.31,27.88-0.73,28.91c-0.55,1.37-21.84,21.54-21.84,21.54l-0.21-0.22l-5.21-5.35l-0.5-0.51l17.21-21.09
							l-3.73-35.39l10.09,3.45l1.04,0.35l1.63,0.56C147.68,320.65,148.49,322.79,148.47,325z"/>
						<g style="opacity:0.5;">
							<path style="fill:#FCC574;" d="M148.46,325.72c0,0.33,0,0.68-0.01,1.04c-0.82-0.15-1.55-0.53-2.19-1.13
								c-2.11-2-2.61-5.96-2.73-7.53l1.04,0.35c0.16,1.64,0.69,4.87,2.38,6.45C147.4,325.33,147.9,325.61,148.46,325.72z"/>
						</g>
						<g>
							<polygon style="opacity:0.5;fill:#FCC574;" points="135.778,351.746 135.3,368.203 140.134,363.512 136.451,350.921 							
								"/>
							<polygon style="opacity:0.5;fill:#FCC574;" points="125.67,376.99 125.24,364.659 123.287,367.053 							"/>
						</g>
					</g>
				</g>
				<g>
					<path style="fill:#E28758;" d="M129.242,368.849c-1.306-0.749-2.653-1.505-4.002-2.289c0.624,12.615,1.863,25.356,1.863,25.356
						h7.154l0.363-19.888C132.845,370.947,131.054,369.887,129.242,368.849z"/>
					<path style="fill:#143C4A;" d="M127.286,395.002c-0.673-0.019-1.376-0.973-1.387-1.646c-0.009-0.516,0.048-1.033,0.171-1.534
						c0.059-0.243,0.141-0.494,0.326-0.663c0.226-0.207,0.558-0.246,0.864-0.245c1.957,0.009,3.813,1.195,5.727,0.787
						c-0.201-0.734-0.134-1.538,0.185-2.229c0.125-0.27,0.3-0.535,0.567-0.665c0.613-0.3,1.285,0.228,1.8,0.675
						c1.947,1.69,4.454,2.725,7.026,2.901c0.585,0.04,1.179,0.038,1.747,0.181c0.569,0.144,1.126,0.459,1.402,0.977
						c0.277,0.517,0.182,1.252-0.309,1.572L127.286,395.002z"/>
					<g>
						<path style="fill:#FCC574;" d="M142.25,317.66l-5.8,10.92l-1.57,54.11h-8.98c0,0-1.9-43.5-2.15-54.75s3.26-15.48,3.26-15.48
							l1.5,0.51l0.95,0.32l2.38,0.82l0.96,0.33L142.25,317.66z"/>
						<path style="opacity:0.5;fill:#FCC574;" d="M132.8,314.44c-0.36,1.86-1.2,4.78-2.98,6.05c-0.6,0.42-1.25,0.63-1.95,0.63
							c-0.12,0-0.24-0.03-0.35-0.04c-0.29,1.79-0.49,3.75-0.52,5.8c-0.09,6.1,0.91,33.54,1.45,48.28c0.15,4.13,0.24,6.34,0.24,7.53
							h-0.96c-0.05-1.35-0.15-4.09-0.27-7.5c-0.55-14.75-1.55-42.2-1.46-48.32c0.09-6.11,1.67-11.46,2.51-13.9l0.95,0.32
							c-0.49,1.42-1.23,3.84-1.77,6.82c0.56,0.04,1.07-0.1,1.54-0.44c1.54-1.1,2.29-3.86,2.61-5.56L132.8,314.44z"/>
					</g>
				</g>
			</g>
			<g>
				<g>
					<g>
						<path style="fill:#E28758;" d="M176.709,320.099l0.823-4.292l-23.59-4.339c-1.926-0.368-3.789,0.912-4.161,2.859l0,0
							c-0.372,1.947,1.838,3.118,3.764,3.486L176.709,320.099z"/>
						<path style="fill:#E28758;" d="M176.876,315.856c0,0,7.083-0.976,10.622,3.186c0.285,0.336,0.135,0.857-0.293,0.964
							c-1.759,0.438-6.075,1.237-10.917,0.093L176.876,315.856z"/>
					</g>
					<path style="fill:#0F3340;" d="M142.733,294.313l6.142-0.867c2.514-0.355,4.867,1.318,5.357,3.809l2.785,14.151l11.671,2.775
						l-1.643,5.919c0,0-15.375,1.901-17.75-5.161S142.733,294.313,142.733,294.313z"/>
				</g>
				<g>
					<g>
						<polygon style="fill:#E28758;" points="142.083,286.482 146.771,290.583 149.606,288.695 152.246,279.82 146.121,277.731 
													"/>
						<path style="fill:#C26144;" d="M150.861,284.478c0,0-3.418-1.21-4.256-3.142c0,0,0.716,4.325,3.66,5.146L150.861,284.478z"/>
					</g>
					<path style="fill:#143C4A;" d="M154.5,300.09c-0.57,1.81-8.3,18.92-8.3,18.92l-19.19-6.55l4.74-18.09
						c0.79-2.99,2.93-5.44,5.78-6.62c0.97-0.4,1.89-0.73,2.65-0.98c0.43-0.15,0.81-0.27,1.12-0.37c0.54-0.16,0.87-0.24,0.87-0.24
						l4.72,3.76l2.72-1.22c0.16,0.16,0.33,0.33,0.48,0.5c0.24,0.25,0.46,0.51,0.68,0.78C153.69,293.61,155,298.49,154.5,300.09z"/>
					<g style="opacity:0.5;">
						<path style="fill:#143C4A;" d="M150.77,289.98l-4.44,2.11l-6.15-5.32c0.43-0.15,0.81-0.27,1.12-0.37l5.2,4.51l3.59-1.71
							C150.33,289.45,150.55,289.71,150.77,289.98z"/>
					</g>
				</g>
				<g>
					<g>
						<g>
							<path style="fill:#E28758;" d="M166.923,320.531l0.903-4.276l-23.505-4.78c-1.919-0.404-3.805,0.841-4.214,2.78l0,0
								c-0.408,1.939,1.779,3.152,3.698,3.556L166.923,320.531z"/>
							<path style="fill:#E28758;" d="M167.17,316.292c0,0,7.1-0.842,10.561,3.385c0.279,0.341,0.119,0.859-0.311,0.958
								c-1.767,0.405-6.097,1.123-10.917-0.111L167.17,316.292z"/>
						</g>
						<path style="fill:#143C4A;" d="M133.436,294.112l10.651-1.3l3.31,18.658l11.617,2.993l-1.754,5.887
							c0,0-15.408,1.613-17.65-5.493C137.368,307.751,133.436,294.112,133.436,294.112z"/>
					</g>
					<path style="opacity:0.5;fill:#143C4A;" d="M134.416,297.492l4.775,16.024C139.192,313.517,129.902,307.647,134.416,297.492z"
						/>
				</g>
			</g>
			<g>
				<g>
					<path style="fill:#E28758;" d="M157.579,272.608c-1.998-2.885-6.212-2.995-8.452-3.1c-0.911-0.043-1.795,0.418-2.331,1.229
						c-0.426,0.647-0.869,1.367-1.248,2.146c-0.228-0.087-0.487-0.116-0.788-0.017c-1.08,0.352-1.355,2.833-0.193,4.029
						c0.015,0.602,0.107,1.219,0.307,1.849c1.349,4.26,6.924,7.082,9.051,5.844c0.534-0.313,1.098-1.23,1.648-2.432
						c0.326-0.723,0.65-1.543,0.954-2.401c0.816-2.3,1.05-3.478,1.415-4.874C158.148,274.087,158.023,273.25,157.579,272.608z"/>
					<g>
						<path style="fill:#C26144;" d="M153.719,276.445c-0.288,0.243-0.461,0.616-0.533,0.991c-0.077,0.378-0.063,0.764-0.014,1.136
							c0.028,0.189,0.073,0.367,0.071,0.508c0.005,0.139-0.053,0.26-0.156,0.371c-0.207,0.22-0.576,0.273-0.939,0.195
							c0.29,0.22,0.768,0.303,1.13,0.03c0.178-0.122,0.307-0.35,0.322-0.578c0.013-0.226-0.037-0.405-0.054-0.578
							c-0.053-0.35-0.081-0.7-0.068-1.046C153.494,277.126,153.56,276.783,153.719,276.445z"/>
						<path style="fill:#523329;" d="M152.687,275.402c-0.094-0.177-0.233-0.286-0.397-0.368c-0.165-0.076-0.348-0.12-0.534-0.132
							c-0.186-0.018-0.377,0.023-0.543,0.095c-0.172,0.064-0.308,0.185-0.426,0.305c-0.04,0.041-0.04,0.107,0.001,0.148
							c0.031,0.03,0.076,0.038,0.113,0.022l0.012-0.005c0.14-0.058,0.273-0.109,0.406-0.128c0.132-0.026,0.262-0.015,0.388,0.007
							c0.258,0.042,0.467,0.22,0.748,0.293l0.038,0.01c0.092,0.024,0.186-0.031,0.21-0.123
							C152.713,275.483,152.706,275.439,152.687,275.402z"/>
						<path style="fill:#523329;" d="M154.609,276.374c0.267,0.114,0.541,0.1,0.771,0.225c0.113,0.059,0.222,0.13,0.311,0.232
							c0.094,0.097,0.168,0.218,0.243,0.35l0.006,0.011c0.029,0.05,0.093,0.067,0.143,0.039c0.038-0.022,0.057-0.063,0.052-0.103
							c-0.02-0.167-0.054-0.346-0.151-0.502c-0.087-0.159-0.214-0.308-0.372-0.408c-0.155-0.104-0.326-0.181-0.503-0.221
							c-0.18-0.035-0.357-0.034-0.539,0.049c-0.086,0.039-0.125,0.141-0.086,0.227c0.018,0.041,0.051,0.071,0.089,0.087
							L154.609,276.374z"/>
						<path style="fill:#C26144;" d="M152.152,280.875c-0.439-0.162-0.833-0.319-1.106-0.588c-0.139-0.129-0.245-0.289-0.316-0.479
							c-0.082-0.188-0.116-0.4-0.177-0.633c-0.095,0.214-0.149,0.458-0.109,0.706c0.023,0.25,0.153,0.496,0.339,0.677
							c0.188,0.178,0.422,0.294,0.66,0.343C151.681,280.949,151.925,280.95,152.152,280.875z"/>
						<path style="fill:#523329;" d="M151.256,277.115c-0.136,0.4-0.053,0.79,0.185,0.871s0.543-0.177,0.679-0.577
							c0.136-0.4,0.053-0.79-0.185-0.871C151.697,276.457,151.393,276.715,151.256,277.115z"/>
						<path style="fill:#523329;" d="M154.325,278.162c-0.136,0.4-0.054,0.79,0.185,0.871c0.239,0.081,0.543-0.177,0.679-0.577
							c0.136-0.4,0.053-0.79-0.185-0.871C154.766,277.504,154.462,277.762,154.325,278.162z"/>
						<path style="fill:#C26144;" d="M144.521,274.252c0.14-0.133,0.332-0.155,0.495-0.118c0.166,0.035,0.299,0.142,0.41,0.269
							c0.213,0.265,0.366,0.608,0.471,0.944c0.026,0.083,0.115,0.129,0.198,0.103c0.077-0.024,0.122-0.102,0.108-0.179
							c-0.052-0.287-0.267-0.482-0.478-0.6c-0.108-0.06-0.225-0.104-0.36-0.123c-0.131-0.019-0.292,0.004-0.41,0.098
							c-0.233,0.186-0.271,0.493-0.173,0.723c0.102,0.229,0.298,0.374,0.501,0.459c-0.163-0.147-0.304-0.321-0.343-0.511
							c-0.043-0.179,0.036-0.384,0.165-0.456c0.118-0.076,0.303-0.02,0.468,0.079c0.164,0.095,0.288,0.239,0.32,0.389l0.306-0.076
							c-0.127-0.374-0.303-0.73-0.602-1.016c-0.149-0.139-0.352-0.246-0.564-0.248C144.827,273.983,144.609,274.076,144.521,274.252
							z"/>
					</g>
					<path style="fill:#523329;" d="M157.702,275.828c0.108-2.609-1.92-1.141-2.944-1.067c-1.024,0.073-0.695-1.167-1.663-1.874
						c-0.969-0.707-1.794,0.269-1.794,0.269s-1.464,1.532-2.96,2.253c-0.319,0.154-0.699,0.012-0.844-0.311
						c-0.255-0.566-0.716-1.427-1.333-1.921c-0.674-0.54-1.626-0.302-2.026,0.464c-0.351,0.672-0.546,1.769,0.428,3.25
						c0,0,0.202,1.694,0.463,2.284c-0.911-0.439-1.603-1.342-1.894-2.311c-0.383-1.274-0.203-2.676,0.157-3.926
						c0.283-0.984,0.73-1.918,1.311-2.761c0.313-0.454,0.682-0.877,1.162-1.142c0.538-0.298,1.24-0.361,1.755-0.024
						c2.245-0.752,4.563-1.021,6.921-0.811c0.916,0.081,1.839,0.24,2.673,0.629c0.834,0.389,1.577,1.029,1.945,1.872
						c0.289,0.664,0.331,1.417,0.22,2.132c-0.111,0.716-0.369,1.4-0.661,2.063c-0.358,0.813-0.773,1.607-1.328,2.3L157.702,275.828z
						"/>
				</g>
			</g>
		</g>
		<g>
			<g>
				<g>
					
						<rect x="179.326" y="357.467" transform="matrix(-1.836970e-16 1 -1 -1.836970e-16 574.4671 143.8753)" style="fill:#4759A1;" width="71.94" height="3.408"/>
					
						<rect x="212.877" y="329.293" transform="matrix(-1.836970e-16 1 -1 -1.836970e-16 546.2933 115.7011)" style="opacity:0.5;fill:#4759A1;" width="4.839" height="3.408"/>
				</g>
				<g>
					
						<rect x="145.407" y="357.467" transform="matrix(-1.836970e-16 1 -1 -1.836970e-16 540.5481 177.7943)" style="fill:#4759A1;" width="71.94" height="3.408"/>
					
						<rect x="178.958" y="329.293" transform="matrix(-1.836970e-16 1 -1 -1.836970e-16 512.3743 149.6201)" style="opacity:0.5;fill:#4759A1;" width="4.839" height="3.408"/>
				</g>
				<g>
					
						<rect x="127.23" y="357.467" transform="matrix(-1.836970e-16 1 -1 -1.836970e-16 522.3714 195.971)" style="fill:#6376BF;" width="71.94" height="3.408"/>
					
						<rect x="160.781" y="329.293" transform="matrix(-1.836970e-16 1 -1 -1.836970e-16 494.1975 167.7969)" style="opacity:0.5;fill:#6376BF;" width="4.839" height="3.408"/>
				</g>
				<g>
					
						<rect x="161.149" y="357.467" transform="matrix(-1.836970e-16 1 -1 -1.836970e-16 556.2904 162.052)" style="fill:#6376BF;" width="71.94" height="3.408"/>
					
						<rect x="194.7" y="329.293" transform="matrix(-1.836970e-16 1 -1 -1.836970e-16 528.1165 133.8779)" style="opacity:0.5;fill:#6376BF;" width="4.839" height="3.408"/>
				</g>
				<g>
					<rect x="161.496" y="323.201" style="fill:#6376BF;" width="55.504" height="5.376"/>
					<rect x="161.496" y="323.201" style="opacity:0.5;fill:#6376BF;" width="55.504" height="1.549"/>
				</g>
			</g>
			<g>
				<rect x="168.609" y="320.951" style="fill:#1B5063;" width="25.536" height="2.25"/>
				<rect x="182.647" y="320.951" style="fill:#143C4A;" width="22.353" height="2.25"/>
				<path style="fill:#143C4A;" d="M204.969,320.951h-22.353l1.887-14.163c0.065-0.487,0.48-0.851,0.971-0.851h20.375
					c0.593,0,1.05,0.522,0.972,1.109L204.969,320.951z"/>
			</g>
		</g>
	</g>
	<g>
		<rect x="32.721" y="394.75" style="fill:#B4CBDD;" width="426.279" height="3"/>
	</g>
</g>
<g id="DESIGNED_BY_FREEPIK">
	<g id="XMLID_258_">
		<g id="XMLID_287_">
			<g id="XMLID_306_">
				<path id="XMLID_314_" style="fill:#9EB7C7;" d="M260.104,465.465c-0.433,0.443-0.804,0.932-1.108,1.453l-0.465-0.241
					c-0.067-0.297-0.35-0.502-0.659-0.466c-0.331,0.039-0.567,0.339-0.529,0.67c0.039,0.331,0.339,0.567,0.67,0.528
					c0.065-0.007,0.127-0.025,0.184-0.052l0.451,0.234c-0.251,0.554-0.433,1.139-0.539,1.743l0.747,0.132
					c0.229-1.306,0.85-2.507,1.792-3.473L260.104,465.465z"/>
				<path id="XMLID_313_" style="fill:#9EB7C7;" d="M265.591,463.164c-0.171,0-0.341,0.006-0.509,0.017l-0.074-0.626
					c0.188-0.149,0.296-0.389,0.266-0.645c-0.046-0.393-0.402-0.674-0.795-0.628c-0.394,0.046-0.675,0.402-0.628,0.796
					c0.03,0.254,0.189,0.461,0.404,0.563l0.073,0.624c-0.714,0.116-1.402,0.332-2.06,0.646l0.327,0.685
					c0.935-0.447,1.941-0.674,2.995-0.674c0.497,0,0.993,0.053,1.476,0.158l0.16-0.741
					C266.692,463.222,266.142,463.164,265.591,463.164z"/>
				<path id="XMLID_312_" style="fill:#9EB7C7;" d="M272.194,465.711c0.331-0.04,0.566-0.341,0.525-0.672
					c-0.04-0.331-0.341-0.566-0.672-0.525c-0.31,0.038-0.535,0.304-0.53,0.608l-0.416,0.363c-0.418-0.43-0.89-0.813-1.407-1.14
					l-0.404,0.642c1.135,0.715,2.021,1.727,2.564,2.925l0.69-0.313c-0.251-0.554-0.567-1.071-0.942-1.545l0.402-0.351
					C272.065,465.715,272.128,465.719,272.194,465.711z"/>
				<path id="XMLID_311_" style="fill:#9EB7C7;" d="M265.044,473.372c-0.386,0.023-0.775,0.035-1.157,0.035
					c-0.88,0-1.733-0.061-2.479-0.18c-0.391-0.062-0.846-0.154-1.271-0.292c1.047,1.861,3.069,3.125,5.389,3.125
					c2.855,0,5.263-1.916,5.949-4.503c-0.682,0.449-1.505,0.825-2.458,1.122C267.838,473.047,266.463,473.287,265.044,473.372z"/>
				<path id="XMLID_307_" style="fill:#9EB7C7;" d="M265.591,464.68c-3.351,0-6.079,2.666-6.079,5.943
					c0,0.425,0.046,0.849,0.137,1.261c0.674,0.483,2.706,0.891,5.348,0.731c2.88-0.174,5.297-0.958,6.672-2.159
					c-0.005-0.194-0.02-0.39-0.045-0.581C271.244,466.914,268.65,464.68,265.591,464.68z M263.432,471.195
					c-1.02,0-1.85-0.83-1.85-1.85c0-1.021,0.83-1.851,1.85-1.851c1.02,0,1.85,0.83,1.85,1.851
					C265.282,470.365,264.452,471.195,263.432,471.195z M268.169,470.287c-0.75,0-1.36-0.61-1.36-1.36s0.61-1.36,1.36-1.36
					s1.36,0.61,1.36,1.36S268.919,470.287,268.169,470.287z"/>
			</g>
			<path id="XMLID_304_" style="fill:#9EB7C7;" d="M281.595,466.547c-0.295-0.116-0.806-0.31-1.383-0.238
				c-0.551,0.069-0.844,0.341-0.844,1.007v0.866h2.229v1.717h-2.229v5.455h-1.932v-5.455h-1.339v-1.717h1.339v-0.889
				c0-1.68,0.896-2.782,2.568-2.782c0.643,0,1.157,0.121,1.59,0.308V466.547z"/>
			<path id="XMLID_302_" style="fill:#9EB7C7;" d="M286.297,469.878c-0.177-0.029-0.357-0.046-0.525-0.046
				c-0.896,0-1.51,0.548-1.51,1.613v3.908h-1.933v-7.172h1.873v0.784c0.451-0.673,1.14-0.977,2.021-0.977
				c0.414,0,0.848,0.128,1.095,0.337L286.297,469.878z"/>
			<path id="XMLID_299_" style="fill:#9EB7C7;" d="M293.965,471.757c0,0.222-0.016,0.488-0.037,0.651h-5.085
				c0.207,1.036,0.933,1.487,1.843,1.487c0.622,0,1.295-0.252,1.813-0.689l1.133,1.243c-0.814,0.748-1.851,1.089-3.057,1.089
				c-2.198,0-3.724-1.496-3.724-3.753c0-2.258,1.48-3.797,3.627-3.797C292.543,467.99,293.958,469.522,293.965,471.757z
				 M288.851,471.091h3.175c-0.178-0.918-0.732-1.437-1.561-1.437C289.554,469.655,289.021,470.203,288.851,471.091z"/>
			<path id="XMLID_296_" style="fill:#9EB7C7;" d="M301.619,471.757c0,0.222-0.016,0.488-0.037,0.651h-5.085
				c0.207,1.036,0.933,1.487,1.843,1.487c0.622,0,1.296-0.252,1.814-0.689l1.133,1.243c-0.815,0.748-1.851,1.089-3.058,1.089
				c-2.198,0-3.723-1.496-3.723-3.753c0-2.258,1.48-3.797,3.627-3.797C300.197,467.99,301.611,469.522,301.619,471.757z
				 M296.504,471.091h3.175c-0.178-0.918-0.733-1.437-1.561-1.437C297.208,469.655,296.674,470.203,296.504,471.091z"/>
			<path id="XMLID_293_" style="fill:#9EB7C7;" d="M309.964,471.764c0,2.154-1.495,3.775-3.472,3.775
				c-0.962,0-1.644-0.378-2.109-0.933v3.708h-1.925v-10.133h1.888v0.792c0.467-0.585,1.154-0.984,2.139-0.984
				C308.469,467.99,309.964,469.611,309.964,471.764z M304.287,471.764c0,1.133,0.748,1.977,1.844,1.977
				c1.14,0,1.85-0.881,1.85-1.977c0-1.095-0.71-1.976-1.85-1.976C305.035,469.789,304.287,470.632,304.287,471.764z"/>
			<path id="XMLID_290_" style="fill:#9EB7C7;" d="M313.068,465.836c0,0.696-0.541,1.229-1.236,1.229
				c-0.696,0-1.229-0.533-1.229-1.229c0-0.695,0.532-1.243,1.229-1.243C312.527,464.592,313.068,465.14,313.068,465.836z
				 M312.808,475.354h-1.932v-7.172h1.932V475.354z"/>
			<path id="XMLID_288_" style="fill:#9EB7C7;" d="M316.032,470.736l2.702-2.554h2.368l-3.478,3.375l3.501,3.797h-2.376
				l-2.717-2.901v2.901H314.1v-10.658h1.932V470.736z"/>
		</g>
		<g id="XMLID_259_">
			<path id="XMLID_284_" style="fill:#9EB7C7;" d="M184.412,475.29v-1.055c-0.527,0.718-1.391,1.23-2.387,1.23
				c-1.846,0-3.149-1.406-3.149-3.706c0-2.256,1.289-3.721,3.149-3.721c0.952,0,1.816,0.469,2.387,1.245v-3.765h1.099v9.771H184.412
				z M184.412,473.371v-3.208c-0.395-0.615-1.245-1.143-2.124-1.143c-1.42,0-2.27,1.172-2.27,2.739c0,1.567,0.85,2.725,2.27,2.725
				C183.167,474.484,184.017,473.986,184.412,473.371z"/>
			<path id="XMLID_281_" style="fill:#9EB7C7;" d="M186.932,471.745c0-2.051,1.465-3.706,3.486-3.706
				c2.139,0,3.398,1.67,3.398,3.794v0.278h-5.727c0.088,1.333,1.025,2.446,2.549,2.446c0.806,0,1.626-0.322,2.182-0.894l0.527,0.718
				c-0.703,0.703-1.655,1.084-2.812,1.084C188.44,475.465,186.932,473.957,186.932,471.745z M190.403,468.947
				c-1.509,0-2.256,1.274-2.314,2.358h4.644C192.718,470.25,192.015,468.947,190.403,468.947z"/>
			<path id="XMLID_279_" style="fill:#9EB7C7;" d="M194.607,474.352l0.571-0.791c0.469,0.542,1.362,1.011,2.329,1.011
				c1.084,0,1.67-0.513,1.67-1.216c0-1.714-4.38-0.659-4.38-3.281c0-1.099,0.952-2.036,2.636-2.036c1.202,0,2.051,0.454,2.623,1.025
				l-0.513,0.762c-0.424-0.513-1.201-0.894-2.109-0.894c-0.966,0-1.567,0.483-1.567,1.113c0,1.553,4.379,0.527,4.379,3.281
				c0,1.187-0.952,2.139-2.783,2.139C196.306,475.465,195.325,475.114,194.607,474.352z"/>
			<path id="XMLID_276_" style="fill:#9EB7C7;" d="M201.477,466.471c0-0.41,0.337-0.747,0.732-0.747c0.41,0,0.747,0.337,0.747,0.747
				c0,0.41-0.337,0.732-0.747,0.732C201.814,467.204,201.477,466.881,201.477,466.471z M201.667,475.29v-7.075h1.099v7.075H201.667z
				"/>
			<path id="XMLID_273_" style="fill:#9EB7C7;" d="M204.582,477.106l0.556-0.82c0.586,0.703,1.289,0.967,2.3,0.967
				c1.172,0,2.27-0.571,2.27-2.124v-1.011c-0.513,0.718-1.377,1.26-2.373,1.26c-1.846,0-3.149-1.377-3.149-3.662
				c0-2.271,1.289-3.677,3.149-3.677c0.952,0,1.802,0.469,2.373,1.245v-1.069h1.099v6.87c0,2.344-1.641,3.076-3.369,3.076
				C206.237,478.161,205.416,477.925,204.582,477.106z M209.708,473.253v-3.091c-0.381-0.615-1.23-1.143-2.109-1.143
				c-1.421,0-2.27,1.128-2.27,2.695c0,1.553,0.849,2.695,2.27,2.695C208.478,474.411,209.328,473.869,209.708,473.253z"/>
			<path id="XMLID_271_" style="fill:#9EB7C7;" d="M217.413,475.29v-4.629c0-1.245-0.63-1.641-1.582-1.641
				c-0.864,0-1.685,0.527-2.094,1.099v5.171h-1.099v-7.075h1.099v1.025c0.497-0.586,1.464-1.201,2.519-1.201
				c1.48,0,2.256,0.747,2.256,2.285v4.966H217.413z"/>
			<path id="XMLID_268_" style="fill:#9EB7C7;" d="M219.932,471.745c0-2.051,1.465-3.706,3.486-3.706
				c2.139,0,3.398,1.67,3.398,3.794v0.278h-5.727c0.088,1.333,1.025,2.446,2.548,2.446c0.806,0,1.626-0.322,2.183-0.894l0.527,0.718
				c-0.703,0.703-1.655,1.084-2.813,1.084C221.441,475.465,219.932,473.957,219.932,471.745z M223.404,468.947
				c-1.509,0-2.256,1.274-2.314,2.358h4.643C225.718,470.25,225.015,468.947,223.404,468.947z"/>
			<path id="XMLID_265_" style="fill:#9EB7C7;" d="M233.35,475.29v-1.055c-0.527,0.718-1.392,1.23-2.388,1.23
				c-1.845,0-3.149-1.406-3.149-3.706c0-2.256,1.289-3.721,3.149-3.721c0.952,0,1.817,0.469,2.388,1.245v-3.765h1.098v9.771H233.35z
				 M233.35,473.371v-3.208c-0.396-0.615-1.245-1.143-2.124-1.143c-1.421,0-2.27,1.172-2.27,2.739c0,1.567,0.85,2.725,2.27,2.725
				C232.105,474.484,232.954,473.986,233.35,473.371z"/>
			<path id="XMLID_262_" style="fill:#9EB7C7;" d="M239.692,475.29v-9.771h1.099v3.765c0.571-0.776,1.421-1.245,2.388-1.245
				c1.845,0,3.149,1.465,3.149,3.721c0,2.3-1.304,3.706-3.149,3.706c-0.996,0-1.86-0.513-2.388-1.23v1.055H239.692z M242.9,474.484
				c1.436,0,2.285-1.157,2.285-2.725c0-1.567-0.85-2.739-2.285-2.739c-0.864,0-1.729,0.527-2.109,1.143v3.208
				C241.171,473.986,242.036,474.484,242.9,474.484z"/>
			<path id="XMLID_260_" style="fill:#9EB7C7;" d="M247.528,477.062c0.161,0.073,0.425,0.117,0.6,0.117
				c0.483,0,0.806-0.161,1.055-0.747l0.469-1.069l-2.959-7.148h1.187l2.358,5.801l2.344-5.801h1.2l-3.544,8.511
				c-0.425,1.024-1.143,1.421-2.08,1.436c-0.234,0-0.6-0.044-0.806-0.104L247.528,477.062z"/>
		</g>
	</g>
</g>
</svg>
